Coordinates
version=1
nRows=17
nColumns=36
inDegrees=yes

Units are S.I. units (second, meters, Newtons, ...)
If the header above contains a line with 'inDegrees', this indicates whether rotational values are in degrees (yes) or radians (no).

endheader
time	pelvis_tilt	pelvis_list	pelvis_rotation	pelvis_tx	pelvis_ty	pelvis_tz	hip_flexion_r	hip_adduction_r	hip_rotation_r	knee_angle_r	knee_angle_r_beta	ankle_angle_r	subtalar_angle_r	mtp_angle_r	hip_flexion_l	hip_adduction_l	hip_rotation_l	knee_angle_l	knee_angle_l_beta	ankle_angle_l	subtalar_angle_l	mtp_angle_l	lumbar_extension	lumbar_bending	lumbar_rotation	arm_flex_r	arm_add_r	arm_rot_r	elbow_flex_r	pro_sup_r	arm_flex_l	arm_add_l	arm_rot_l	elbow_flex_l	pro_sup_l
      2.40000000	    -24.43271239	     -7.92504533	     13.67326059	      0.61766297	      0.79589690	      0.20602756	     73.70860918	    -10.66164545	      0.86160920	     82.35847504	      1.43742656	     45.27792922	      0.93065124	     -7.49999987	     79.40879985	    -14.74190548	      0.17593497	     78.96625736	      1.37822119	     43.60127610	      1.05339101	     -7.49999987	    -15.51205825	     -0.99699969	      7.48819856	    -14.50942989	    -46.41867848	     35.84432961	     83.33656823	     72.93034482	    -15.14562843	    -43.57030662	     31.63124158	     91.07084028	     77.98690912
      2.41666670	    -25.95560975	     -8.50579116	     13.41808590	      0.61148976	      0.78944954	      0.20835945	     76.92584094	    -10.53659397	      0.99572105	     84.36689534	      1.47248010	     45.18311324	      0.99140541	     -7.49999987	     82.76449733	    -14.99966312	      0.66118495	     80.99529541	      1.41363458	     44.04138113	      1.29203545	     -7.49999987	    -16.59773129	     -1.22892001	      7.74197127	    -14.12485862	    -46.28416569	     35.56609976	     82.97755543	     72.36138450	    -14.90169267	    -43.52744178	     30.44616809	     91.84917675	     77.03567938
      2.43333330	    -27.01931225	     -8.93843357	     13.21283403	      0.61086037	      0.78378020	      0.20856325	     79.09709022	    -10.48860352	      1.03899673	     85.68174936	      1.49542864	     45.01381695	      1.11610893	     -7.49999987	     84.99792376	    -15.12283061	      1.09349887	     82.31740522	      1.43670975	     44.42963003	      1.53095531	     -7.49999987	    -17.96946135	     -1.45616874	      7.83298963	    -13.94612893	    -46.01749789	     35.27815394	     82.42880314	     71.76898696	    -14.90104963	    -43.52309287	     29.30098329	     92.78731423	     76.26998182
      2.45000000	    -27.74097588	     -9.26621641	     12.94427622	      0.61084541	      0.77452061	      0.20945863	     80.59210405	    -10.38913002	      0.99379325	     86.75095473	      1.51408979	     44.95651890	      1.30499403	     -7.49999987	     86.52914202	    -15.39200496	      1.42001502	     83.40462939	      1.45568539	     44.92541601	      1.98501277	     -7.49999987	    -19.36723521	     -1.63476743	      8.12058814	    -14.12782172	    -45.73531446	     35.00081139	     82.11210531	     72.68055359	    -14.80770182	    -43.56979295	     28.36644403	     93.72206349	     77.47496994
      2.46666670	    -28.59765683	     -9.77423969	     12.78673126	      0.61017794	      0.76970655	      0.20937112	     81.89468708	    -10.50755889	      0.60701752	     87.42306565	      1.52582034	     44.90543871	      1.46124848	     -7.49999987	     88.05861355	    -15.41945374	      1.97994181	     84.16814972	      1.46901134	     45.25208632	      2.25898027	     -7.49999987	    -20.54949604	     -1.54350777	      8.04796928	    -14.14237995	    -45.49640617	     34.94407696	     81.77493541	     72.97569084	    -14.87189485	    -43.55484602	     27.60104741	     94.44603298	     77.87637166
      2.48333330	    -29.18676723	    -10.08359314	     12.55362194	      0.60988413	      0.76649510	      0.20942239	     82.78475340	    -10.48645457	      0.40299467	     87.94238687	      1.53488420	     44.84086172	      1.48517520	     -7.49999987	     88.99956612	    -15.51450336	      2.36054914	     84.74320180	      1.47904789	     45.75734629	      2.50386270	     -7.49999987	    -21.75182521	     -1.76167782	      7.26442937	    -12.68005184	    -45.21555901	     36.43078983	     81.05970037	     75.87008148	    -16.72027246	    -42.94875007	     24.31782499	     95.77448346	     81.41514414
      2.50000000	    -29.55555068	    -10.35807930	     12.34320295	      0.61417991	      0.75990529	      0.20665223	     83.26496749	    -10.47688665	      0.16558966	     88.38650893	      1.54263560	     44.94065439	      1.59566601	     -7.49999987	     89.56320256	    -15.62709245	      2.76189233	     85.28616831	      1.48852444	     46.30361142	      2.92083043	     -7.49999987	    -22.56928317	     -1.79541396	      7.47864927	    -13.18382903	    -44.96859081	     36.30745142	     80.66887412	     76.06061114	    -16.79714970	    -42.78576680	     23.91980031	     96.74017904	     81.67970308
      2.51666670	    -29.98097974	    -10.45341750	     12.24731539	      0.60873100	      0.76566702	      0.20973752	     83.57096662	    -10.56894639	      0.04107825	     88.33817322	      1.54179198	     44.83974130	      1.57875954	     -7.49999987	     89.90417599	    -15.61521674	      2.77182993	     85.33602131	      1.48939454	     46.33034299	      2.90984093	     -7.49999987	    -23.38641490	     -1.82519519	      7.41637819	    -13.12554507	    -44.88385931	     36.31211580	     80.63767853	     76.05745829	    -16.56344881	    -42.71086522	     23.81983334	     96.79902475	     81.66600411
      2.53333330	    -29.94773890	    -10.68282569	     12.23238298	      0.60310356	      0.76450258	      0.21283822	     83.45607322	    -10.60867490	     -0.35565390	     88.15295380	      1.53855929	     44.39400106	      1.54819415	     -7.49999987	     89.94727490	    -15.63150756	      3.02456870	     85.26368054	      1.48813196	     46.76766654	      3.44815858	     -7.49999987	    -24.62384423	     -1.69760654	      7.72603405	    -13.25660109	    -44.72845485	     36.06961445	     80.38594653	     76.13019473	    -16.19033414	    -42.27819689	     23.06542188	     97.76282499	     81.65828558
      2.55000000	    -30.23235091	    -10.78015911	     12.14127689	      0.59765920	      0.76375034	      0.21545349	     83.69648893	    -10.63991668	     -0.62245800	     87.81934078	      1.53273664	     44.04376479	      1.62095799	     -7.49999987	     90.21890420	    -15.66975217	      3.02837893	     84.96911736	      1.48299086	     46.68011218	      3.54957931	     -7.49999987	    -25.31804491	     -1.67775921	      7.72753855	    -13.11974571	    -44.59903210	     35.98694277	     80.58434909	     76.15115933	    -15.95587296	    -42.26741683	     22.85415038	     98.05087200	     81.64839476
      2.56666670	    -29.74333861	    -10.98974048	     11.99818819	      0.60266092	      0.75968908	      0.21302228	     83.13980785	    -10.45436792	     -1.14573641	     87.62316318	      1.52931270	     43.51423638	      1.11950912	     -7.49999987	     89.84815214	    -15.92590882	      3.45615716	     84.91902062	      1.48211651	     46.64630000	      3.80139867	     -7.49999987	    -26.46884526	     -1.36849445	      7.95348807	    -13.81044095	    -44.46912529	     35.25703765	     81.13689593	     75.61817758	    -16.73684544	    -41.80200043	     21.60525992	     99.16747873	     80.39890421
      2.58333330	    -29.46394746	    -10.96974273	     11.89336789	      0.60223189	      0.76053415	      0.21272905	     82.76472181	    -10.37663332	     -1.32711935	     87.46820698	      1.52660820	     43.25799351	      0.94640242	     -7.49999987	     89.40932274	    -16.06431142	      3.60217759	     84.76273775	      1.47938886	     46.65373811	      4.01772122	     -7.49999987	    -26.89015805	     -1.18980577	      8.08285350	    -14.08401771	    -44.42434608	     35.42510572	     81.26675742	     74.62274152	    -16.74367888	    -41.59390783	     21.57691192	     99.36392442	     78.84197411
      2.60000000	    -29.21293358	    -10.97304097	     11.85310101	      0.60747874	      0.76711056	      0.21026766	     82.10477624	    -10.35715779	     -1.55693935	     87.01969971	      1.51878027	     42.98432079	      0.61338609	     -7.49999987	     88.75643312	    -16.08996287	      3.70094216	     84.42898031	      1.47356369	     46.66332021	      4.16023311	     -7.49999987	    -27.14239351	     -0.95183386	      8.09655308	    -14.23856779	    -43.79465909	     35.29476825	     80.42865126	     74.98712281	    -16.74277713	    -40.87097180	     21.24290128	     98.51315173	     79.06139774
      2.61666670	    -28.63212505	    -10.76789181	     11.77778647	      0.60665576	      0.76887627	      0.21014060	     81.08436854	    -10.24866398	     -1.60658442	     86.54502397	      1.51049562	     42.75819764	      0.46083236	     -7.49999987	     87.60700676	    -16.24655252	      3.56383513	     84.04800455	      1.46691441	     46.80729155	      4.51107683	     -7.49999987	    -27.74160582	     -0.92397571	      8.17789196	    -14.24682207	    -43.54541789	     35.37950445	     80.14007293	     73.71613302	    -16.51285848	    -40.50753930	     21.36417693	     98.37145506	     77.21384012
      2.63333330	    -28.19729647	    -10.67264466	     11.76441287	      0.60611071	      0.76832896	      0.21026084	     80.32541686	    -10.21531560	     -1.70887645	     86.19688672	      1.50441948	     42.58286299	      0.23706955	     -7.49999987	     86.78353018	    -16.30486017	      3.52734583	     83.76965338	      1.46205626	     46.84786432	      4.62339318	     -7.49999987	    -27.91344514	     -0.72903944	      8.18463092	    -14.36494144	    -43.27580276	     35.49209433	     79.84513238	     72.93981836	    -16.44165771	    -40.07906717	     21.53593069	     98.02644711	     75.96452477
      2.65000000	    -28.12239191	    -10.57428758	     11.67813251	      0.61092827	      0.76925379	      0.20724504	     79.94075642	    -10.24085101	     -1.74154797	     85.93383097	      1.49982829	     42.53838511	      0.19244698	     -7.49999987	     86.29629663	    -16.25684735	      3.54745893	     83.50342502	      1.45740970	     46.86380088	      4.65574282	     -7.49999987	    -27.38011945	     -0.51907415	      8.11581676	    -14.74009716	    -43.12569921	     35.63960435	     79.74755047	     73.00902290	    -16.79712593	    -39.82823594	     21.70524590	     97.87297931	     76.01297757
      2.66666670	    -27.53048063	    -10.53417038	     11.69023734	      0.61046491	      0.77048305	      0.20761084	     78.97058333	    -10.23476182	     -1.97666790	     85.64373436	      1.49476515	     42.48645529	      0.01931178	     -7.49999987	     85.37252565	    -16.28425687	      3.68279027	     83.30334019	      1.45391756	     47.10557598	      4.94867794	     -7.49999987	    -27.59711864	     -0.09555345	      8.17865019	    -14.82393998	    -43.11295434	     35.90795861	     79.51503926	     72.16753235	    -16.62832820	    -39.17228336	     22.03789841	     96.91080233	     74.64522824
